<?xml version="1.0" standalone="no"?>
<!DOCTYPE svg PUBLIC "-//W3C//DTD SVG 20010904//EN"
 "http://www.w3.org/TR/2001/REC-SVG-20010904/DTD/svg10.dtd">
<svg version="1.0" xmlns="http://www.w3.org/2000/svg"
 width="512.000000pt" height="512.000000pt" viewBox="0 0 512.000000 512.000000"
 preserveAspectRatio="xMidYMid meet">

<g transform="translate(0.000000,512.000000) scale(0.100000,-0.100000)"
fill="#000000" stroke="none">
<path d="M1990 4964 c-19 -2 -78 -9 -130 -14 -261 -29 -567 -120 -785 -235
-586 -308 -963 -864 -1056 -1555 -19 -138 -16 -440 5 -580 156 -1033 928
-1721 2005 -1786 l113 -7 -6 -45 c-8 -59 -79 -205 -150 -312 -55 -81 -57 -87
-53 -138 4 -61 28 -99 78 -125 28 -15 48 -17 114 -13 274 19 571 195 884 522
l116 122 135 16 c754 92 1333 488 1640 1120 271 559 288 1231 46 1797 -195
458 -514 795 -951 1009 -215 106 -432 170 -710 211 -75 11 -1207 22 -1295 13z
m2176 -1140 c18 -9 44 -33 56 -53 l23 -36 0 -532 c0 -521 0 -532 -21 -559 -75
-101 -212 -96 -263 9 -21 42 -21 55 -21 553 0 509 0 510 23 554 37 73 125 101
203 64z m-2563 -160 c40 -9 113 -35 164 -60 105 -50 136 -87 136 -159 0 -120
-118 -188 -229 -132 -163 81 -303 84 -460 7 -135 -66 -235 -191 -265 -331 -16
-76 -6 -212 21 -282 47 -125 163 -236 297 -287 74 -28 208 -36 278 -17 l50 13
3 116 3 115 -40 7 c-51 8 -107 62 -117 111 -17 93 32 167 124 186 83 17 222 7
264 -19 69 -43 73 -57 76 -344 3 -268 -2 -314 -39 -362 -27 -34 -165 -101
-254 -122 -110 -27 -278 -23 -388 10 -379 113 -614 433 -593 811 11 207 77
356 226 506 126 127 253 199 414 234 85 19 243 18 329 -1z m1469 -10 c351 -80
584 -362 605 -734 13 -240 -73 -450 -255 -622 -165 -155 -407 -235 -630 -208
-400 49 -703 385 -704 780 -2 417 277 743 684 800 80 11 211 4 300 -16z m1081
-1278 c76 -31 112 -118 81 -194 -41 -104 -173 -128 -250 -46 -54 57 -57 135
-7 195 47 55 112 72 176 45z"/>
<path d="M2811 3369 c-95 -12 -199 -65 -275 -141 -113 -113 -162 -261 -138
-415 39 -252 234 -418 492 -417 186 1 352 101 428 257 178 369 -102 766 -507
716z"/>
</g>
</svg>
