<?xml version="1.0" standalone="no"?>
<!DOCTYPE svg PUBLIC "-//W3C//DTD SVG 20010904//EN"
 "http://www.w3.org/TR/2001/REC-SVG-20010904/DTD/svg10.dtd">
<svg version="1.0" xmlns="http://www.w3.org/2000/svg"
 width="128.000000pt" height="128.000000pt" viewBox="0 0 128.000000 128.000000"
 preserveAspectRatio="xMidYMid meet">

<g transform="translate(0.000000,128.000000) scale(0.100000,-0.100000)"
fill="#000000" stroke="none">
<path d="M445 1234 c-168 -35 -279 -106 -361 -229 -70 -106 -97 -256 -70 -384
50 -237 223 -393 462 -417 73 -8 74 -11 28 -90 -21 -35 -22 -43 -10 -59 28
-39 142 5 230 90 51 49 62 54 132 69 222 45 367 190 410 409 15 74 15 100 6
169 -30 216 -182 383 -394 433 -59 14 -377 20 -433 9z m613 -423 c3 -144 -3
-171 -34 -171 -7 0 -20 7 -28 16 -13 12 -16 40 -16 140 0 141 8 167 48 162
l27 -3 3 -144z m-629 98 c35 -12 54 -39 45 -63 -8 -21 -39 -29 -63 -17 -46 25
-124 4 -155 -41 -23 -32 -20 -104 4 -138 38 -54 132 -68 138 -22 2 16 -4 29
-17 39 -43 29 -19 73 39 73 52 0 60 -14 60 -97 0 -84 -15 -107 -75 -119 -88
-16 -178 25 -223 101 -19 33 -22 52 -20 107 3 57 8 73 34 105 56 71 152 100
233 72z m369 -4 c145 -61 165 -259 35 -349 -60 -42 -140 -47 -203 -14 -115 62
-145 211 -62 310 52 62 152 85 230 53z m256 -327 c23 -38 -35 -78 -61 -42 -17
23 -16 29 3 49 20 19 43 16 58 -7z"/>
<path d="M662 826 c-32 -17 -62 -65 -62 -99 0 -66 57 -127 119 -127 92 0 149
97 106 180 -28 53 -109 76 -163 46z"/>
</g>
</svg>
